# xmcd CD database file
#
# Track frame offsets:
#	182
#	21470
#	51470
#	72015
#	97337
#	118182
#	135277
#	157860
#	184110
#	199525
#
# Disc length: 2944 seconds
#
# Revision: 1
# Processed by: cddbd v1.5.2PL0 Copyright (c) Steve Scherf et al.
# Submitted via: CDex 1.70beta2
#
DISCID=8a0b7e0a
DTITLE=Steve Roux - Steve Roux
DYEAR=1993
DGENRE=Blues
TTITLE0=Who Are You?
TTITLE1=No Other Way
TTITLE2=In A Spin
TTITLE3=Can't Change The Time
TTITLE4=Black Book
TTITLE5=Nowhere To Run
TTITLE6=I'll Remember You
TTITLE7=Love's No Longer There
TTITLE8=Tightrope
TTITLE9=Woman Like You
EXTD=YEAR: 1993
EXTT0=
EXTT1=
EXTT2=
EXTT3=
EXTT4=
EXTT5=
EXTT6=
EXTT7=
EXTT8=
EXTT9=
PLAYORDER=
